<?xml version="1.0" standalone="no"?>
<!DOCTYPE svg PUBLIC "-//W3C//DTD SVG 1.1//EN" "http://www.w3.org/Graphics/SVG/1.1/DTD/svg11.dtd" >
<svg xmlns="http://www.w3.org/2000/svg">
<metadata>
Created by FontPrep 20130207 at Thu Aug 13 13:38:52 2015
 By jd
Copyrighted (c) 1981, 1997 by and the property of Linotype-Hell AG and/or its subsidiaries. All Rights Reserved. All Cyrillic characters designed by DoubleAlex. Helvetica is a registered Trademark of Linotype-Hell AG and/or its subsidiaries.
</metadata>
<defs>
<font id="773791b54ed53f7ca4694bb61a8d1fbc" horiz-adv-x='1024' >
  <font-face 
    font-family="HelveticaNeueCyr-Italic"
    font-weight="550"
    font-style="italic"
    font-stretch="normal"
    units-per-em="2048"
    panose-1="2 0 6 3 4 0 0 9 0 4"
    ascent="1638"
    descent="-410"
    x-height="1057"
    cap-height="1458"
    bbox="-260 -438 2220 1843"
    underline-thickness="102"
    underline-position="-102"
    slope="-12"
    unicode-range="U+0020-E001"
  />
<missing-glyph horiz-adv-x="2048" 
 />
    <glyph glyph-name=".notdef" horiz-adv-x="2048" 
 />
    <glyph glyph-name=".null" horiz-adv-x="0" 
 />
    <glyph glyph-name="nonmarkingreturn" horiz-adv-x="681" 
 />
    <glyph glyph-name="space" unicode=" " horiz-adv-x="569" 
 />
    <glyph glyph-name="exclam" unicode="!" horiz-adv-x="530" 
d="M516 1458l-96 -454l-184 -644h-93l86 644l97 454h190zM264 205l-43 -205h-215l43 205h215z" />
    <glyph glyph-name="quotedbl" unicode="&#x22;" horiz-adv-x="872" 
d="M668 903h-95l103 522h135zM350 903h-96l104 522h134z" />
    <glyph glyph-name="numbersign" unicode="#" 
d="M659 545l72 336h-266l-74 -336h268zM274 0h-131l95 432h-222l25 113h221l74 336h-221l22 114h221l95 430h131l-95 -430h267l94 430h129l-94 -430h221l-25 -114h-221l-72 -336h222l-25 -113h-221l-94 -432h-129l94 432h-268z" />
    <glyph glyph-name="dollar" unicode="$" 
d="M498 106q141 0 235 88t94 220q0 176 -223 239l-117 -547h11zM641 1335q-131 0 -216 -82t-85 -190t57 -155q58 -45 156 -70l104 497h-16zM176 379q0 -238 223 -266l121 565q-154 48 -242 110q-108 78 -108 256t132 303q132 124 341 123h43l31 142h92l-31 -150
q136 -10 232 -99t96 -230q0 -33 -2 -56h-166l2 39q0 88 -51 144t-141 65l-111 -516q360 -92 360 -379q0 -211 -144 -336t-364 -125h-30l-35 -172h-90l37 174q-169 19 -267 123t-98 266l2 74h170q-2 -25 -2 -55z" />
    <glyph glyph-name="percent" unicode="%" horiz-adv-x="1896" 
d="M1436 666q-64 0 -112 -43q-81 -72 -112 -243q-12 -67 -12 -126q0 -168 143 -168q59 0 108 43q79 71 113 240q13 66 13 118q0 179 -141 179zM1432 784q139 0 215 -76q75 -76 75 -207q0 -132 -38 -248t-129 -201t-222 -85t-207 80t-76 244t90 320q44 77 120 125t172 48z
M551 1331q-63 0 -111 -43q-80 -71 -112 -242q-12 -67 -13 -126q0 -168 144 -168q59 0 107 43q79 71 113 239q13 66 13 119q0 178 -141 178zM547 1450q139 0 215 -76t76 -208t-38 -248t-129 -200q-91 -85 -222 -85t-207 80t-76 244t89 320q44 77 120 125t172 48zM1575 1495
l-1122 -1565h-146l1123 1565h145z" />
    <glyph glyph-name="ampersand" unicode="&#x26;" horiz-adv-x="1290" 
d="M530 696q-20 -14 -78 -49q-182 -110 -211 -185q-21 -56 -22 -110q0 -102 70 -168t176 -65q156 0 323 147zM858 1166q0 74 -48 114q-48 41 -128 41t-131 -52t-51 -129t41 -152q12 -24 16 -33q3 -9 19 -35t18 -31q141 72 203 137q61 66 61 140zM469 -27q-192 -1 -307 101
t-115 276q0 119 48 188q28 40 48 68q30 41 111 91q81 51 195 116q-57 94 -85 161t-28 150q0 152 99 246t255 94t243 -78t87 -217t-118 -242q-60 -52 -106 -82t-126 -73l229 -381q106 156 125 299h170q-12 -108 -68 -226t-135 -206l166 -258h-201l-84 139
q-211 -166 -403 -166z" />
    <glyph glyph-name="quotesingle" unicode="'" horiz-adv-x="569" 
d="M330 901h-94l104 524h135z" />
    <glyph glyph-name="parenleft" unicode="(" horiz-adv-x="530" 
d="M225 252q0 -158 32 -347t77 -298h-115q-166 367 -166 701t135 608q135 275 394 563h141q-260 -324 -379 -611t-119 -616z" />
    <glyph glyph-name="parenright" unicode=")" horiz-adv-x="530" 
d="M420 758q0 -590 -529 -1151h-139q96 125 155 208q173 248 244 444q95 265 95 583t-107 637h115q166 -360 166 -721z" />
    <glyph glyph-name="asterisk" unicode="*" horiz-adv-x="720" 
d="M580 1466l-50 -219l226 25l8 -103l-217 -24l100 -207l-100 -47l-96 211l-160 -176l-74 73l154 170l-195 103l53 92l197 -102l47 217z" />
    <glyph glyph-name="plus" unicode="+" horiz-adv-x="1228" 
d="M508 0v453h-447v120h447v453h135v-453h447v-120h-447v-453h-135z" />
    <glyph glyph-name="comma" unicode="," horiz-adv-x="569" 
d="M291 227l-43 -213q-30 -141 -98 -225t-199 -90l20 100q111 0 162 201h-115l45 227h228z" />
    <glyph glyph-name="hyphen" unicode="-" horiz-adv-x="796" 
d="M680 653l-35 -168h-594l35 168h594z" />
    <glyph glyph-name="period" unicode="." horiz-adv-x="569" 
d="M301 227l-49 -227h-238l47 227h240z" />
    <glyph glyph-name="slash" unicode="/" horiz-adv-x="681" 
d="M840 1481l-848 -1512h-148l848 1512h148z" />
    <glyph glyph-name="zero" unicode="0" 
d="M901 974q0 233 -108 299q-47 28 -117 27q-115 0 -206 -97t-138 -240q-96 -293 -94 -512q0 -324 233 -324q92 0 168 67q76 66 123 166t93 268t46 346zM668 1454q416 0 415 -489q0 -196 -62 -421q-62 -226 -199 -394q-67 -82 -162 -130t-203 -49q-186 0 -293 134
q-106 134 -106 375t87 492q47 134 115 239t174 174t234 69z" />
    <glyph glyph-name="one" unicode="1" 
d="M311 1067q-31 0 -57 2l29 131q147 4 274 66t197 184h133l-305 -1450h-187l234 1104q-145 -37 -318 -37z" />
    <glyph glyph-name="two" unicode="2" 
d="M891 1059q0 109 -68 175q-67 66 -193 64q-126 0 -212 -91t-101 -251h-167q12 220 146 358t338 138t319 -104q114 -104 114 -279q0 -107 -51 -214q-18 -40 -64 -89t-72 -74q-24 -26 -90 -70t-114 -71q-47 -27 -79 -46t-82 -49q-168 -99 -236 -166q-68 -66 -91 -134h758
l-33 -156h-929q12 212 150 352t327 248q12 6 54 31t58 34q81 46 140 91q114 88 146 166t32 137z" />
    <glyph glyph-name="three" unicode="3" 
d="M174 451v-48q0 -135 74 -205t217 -69q143 0 237 89t95 231q0 238 -275 237q-45 0 -84 -4l31 145h63q338 0 338 265q0 98 -64 153q-66 55 -184 55t-198 -76t-105 -218h-167q26 204 156 326t322 122t308 -98q115 -98 115 -240t-69 -232q-69 -89 -193 -126q88 -33 137 -112
t49 -183q0 -221 -150 -357q-149 -136 -363 -135q-214 0 -339 113t-125 299q0 6 4 68h170z" />
    <glyph glyph-name="four" unicode="4" 
d="M659 494l146 673l-606 -673h460zM1030 494l-33 -144h-194l-74 -350h-174l74 350h-639l35 162l860 940h147l-201 -958h199z" />
    <glyph glyph-name="five" unicode="5" 
d="M473 -29q-219 1 -337 107t-118 293v18h175v-8q-1 -125 69 -193t197 -67q168 0 262 116t94 267t-74 226t-202 75q-184 0 -275 -143l-151 8l225 755h733l-31 -155h-589l-121 -393q117 80 260 79q180 0 295 -120t114 -314q1 -233 -153 -392t-373 -159z" />
    <glyph glyph-name="six" unicode="6" 
d="M842 482q0 148 -71 225q-71 75 -204 75t-223 -101t-90 -251t75 -231q75 -80 205 -80t220 107q88 108 88 256zM1124 1077h-176q-8 111 -55 170t-154 59t-208 -74q-64 -50 -123 -155t-78 -171q-19 -67 -35 -118q117 146 308 146t307 -120t116 -328t-141 -362
q-141 -153 -361 -153t-336 130q-114 130 -114 390t114 539q174 424 547 424q181 0 285 -97t104 -265v-15z" />
    <glyph glyph-name="seven" unicode="7" 
d="M1182 1425l-33 -149q-243 -232 -443 -580t-307 -696h-198q98 332 308 677t456 583h-758l37 165h938z" />
    <glyph glyph-name="eight" unicode="8" 
d="M542 698q-136 0 -224 -85t-87 -217q0 -132 75 -204t209 -71q134 0 221 87t87 219t-72 202q-73 69 -209 69zM646 1305q-114 0 -184 -68t-69 -175q0 -108 66 -166q67 -58 179 -58t180 68t67 173q-1 106 -63 166t-176 60zM1010 450q0 -222 -144 -349q-144 -128 -351 -128
q-208 0 -339 108t-131 308q0 158 92 264t256 138q-86 51 -129 117t-43 165q0 169 119 273q118 104 310 104t302 -92t111 -256q1 -125 -71 -218t-189 -120q207 -92 207 -314z" />
    <glyph glyph-name="nine" unicode="9" 
d="M881 1004q0 292 -263 292q-130 0 -224 -106t-95 -248q0 -142 71 -218q70 -75 200 -75q130 -1 220 103t91 252zM39 350h168v-12q0 -98 64 -156q65 -57 160 -57q169 0 267 122q41 50 75 130t49 139t34 143q-122 -163 -314 -163t-306 118t-113 301q0 236 144 388
q143 151 363 151t326 -134t106 -339t-46 -410q-47 -205 -130 -342q-84 -137 -190 -197t-275 -60t-275 96q-106 98 -107 270v12z" />
    <glyph glyph-name="colon" unicode=":" horiz-adv-x="569" 
d="M469 1057l-47 -228h-227l47 228h227zM293 227l-47 -227h-228l48 227h227z" />
    <glyph glyph-name="semicolon" unicode=";" horiz-adv-x="569" 
d="M469 1057l-47 -228h-227l47 228h227zM291 227l-43 -213q-30 -141 -98 -225t-199 -90l20 100q111 0 162 201h-115l45 227h228z" />
    <glyph glyph-name="less" unicode="&#x3c;" horiz-adv-x="1228" 
d="M47 457v133l1028 409v-137l-866 -340l866 -336v-137z" />
    <glyph glyph-name="equal" unicode="=" horiz-adv-x="1228" 
d="M61 274v121h1029v-121h-1029zM61 664v122h1029v-122h-1029z" />
    <glyph glyph-name="greater" unicode="&#x3e;" horiz-adv-x="1228" 
d="M1128 457l-1028 -408v137l867 336l-867 340v137l1028 -409v-133z" />
    <glyph glyph-name="question" unicode="?" 
d="M913 1108q0 102 -64 162q-65 59 -177 59q-266 0 -324 -328h-172q27 229 160 353q132 124 332 125q200 -1 313 -97t113 -259t-103 -269q-57 -59 -93 -88q-36 -28 -132 -98t-131 -122t-66 -173h-168q23 141 75 230t157 161q56 42 82 59q68 43 115 96q47 54 65 96
q18 41 18 93zM559 205l-43 -205h-215l45 205h213z" />
    <glyph glyph-name="at" unicode="@" horiz-adv-x="1638" 
d="M1038 874q0 82 -46 134t-122 51q-127 0 -211 -139t-84 -257q1 -117 47 -177t123 -60q127 0 210 154t83 294zM852 -37q-336 0 -567 203q-231 204 -231 536t239 558q240 226 594 227q305 0 497 -170t193 -438q0 -217 -125 -378t-293 -161q-98 0 -137 61t-12 152
q-111 -213 -299 -213q-123 0 -200 85t-77 222q0 199 123 347t287 149q205 0 248 -185l45 154h120l-122 -405q-41 -131 -41 -183q0 -98 96 -98q117 0 211 140t94 315q0 236 -168 381t-440 145q-322 0 -537 -203t-215 -503t210 -479t511 -179q164 1 300 49t282 148l45 -60
q-166 -115 -306 -166t-325 -51z" />
    <glyph glyph-name="A" unicode="A" horiz-adv-x="1366" 
d="M950 598l-108 678l-391 -678h499zM983 1458l260 -1458h-199l-69 444h-613l-258 -444h-219l881 1458h217z" />
    <glyph glyph-name="B" unicode="B" horiz-adv-x="1402" 
d="M586 154q172 0 263 19t152 98t62 184q0 225 -279 225h-438l-115 -526h355zM807 829q141 0 229 68t88 207q0 100 -63 143q-63 42 -175 46q-30 1 -89 1h-324l-96 -465h430zM831 1458q277 0 383 -88q43 -36 72 -100t29 -152q0 -135 -74 -232t-205 -126q102 -29 160 -108
t57 -189q0 -199 -139 -334q-61 -61 -149 -91q-87 -30 -149 -34t-132 -4h-670l308 1458h509z" />
    <glyph glyph-name="C" unicode="C" horiz-adv-x="1478" 
d="M672 -35q-268 0 -428 169t-160 466q0 240 93 440t279 327q186 126 428 126q243 0 391 -131t148 -346v-25h-188q-8 178 -99 258q-90 80 -274 80q-184 -1 -321 -113t-201 -275t-64 -359t106 -324q106 -129 294 -129q190 0 309 95t164 272h197q-54 -248 -230 -390t-444 -141
z" />
    <glyph glyph-name="D" unicode="D" horiz-adv-x="1441" 
d="M545 160q127 0 211 24q234 68 354 344q74 168 74 365q0 399 -420 399h-287l-239 -1132h307zM670 1458q184 0 265 -11t155 -46q136 -63 210 -201t74 -314t-57 -342t-158 -284q-139 -166 -301 -213t-422 -47h-424l305 1458h353z" />
    <glyph glyph-name="E" unicode="E" horiz-adv-x="1251" 
d="M1329 1458l-33 -166h-819l-98 -461h762l-31 -161h-764l-108 -506h829l-37 -164h-1018l310 1458h1007z" />
    <glyph glyph-name="F" unicode="F" horiz-adv-x="1175" 
d="M1282 1458l-35 -168h-766l-96 -459h674l-35 -159h-674l-141 -672h-195l310 1458h958z" />
    <glyph glyph-name="G" unicode="G" horiz-adv-x="1554" 
d="M86 586q0 403 224 653t589 250q242 0 403 -125t164 -356h-190q-27 164 -121 242q-93 78 -277 77t-327 -111t-209 -274t-66 -368t114 -329q114 -124 328 -124t337 132t178 359h-467l35 158h637l-162 -770h-125l-8 154q-162 -188 -456 -188q-293 0 -447 167
q-154 168 -154 453z" />
    <glyph glyph-name="H" unicode="H" horiz-adv-x="1478" 
d="M1475 1458l-306 -1458h-194l143 680h-766l-145 -680h-193l310 1458h190l-127 -616h766l129 616h193z" />
    <glyph glyph-name="I" unicode="I" horiz-adv-x="530" 
d="M518 1458l-307 -1458h-195l310 1458h192z" />
    <glyph glyph-name="J" unicode="J" horiz-adv-x="1062" 
d="M382 123q162 0 223 106q41 72 59 156t20 92l207 981h192l-200 -952q-56 -267 -113 -361q-57 -95 -127 -129q-106 -49 -271 -50t-269 88q-103 89 -103 255q0 63 18 168h187q-19 -95 -20 -175q-1 -79 53 -129t144 -50z" />
    <glyph glyph-name="K" unicode="K" horiz-adv-x="1366" 
d="M1452 1458l-702 -598l471 -860h-217l-400 743l-297 -241l-104 -502h-191l307 1458h191l-150 -723l832 723h260z" />
    <glyph glyph-name="L" unicode="L" 
d="M518 1458l-276 -1294h776l-35 -164h-969l310 1458h194z" />
    <glyph glyph-name="M" unicode="M" horiz-adv-x="1781" 
d="M12 0l316 1458h260l198 -1253l730 1253h266l-309 -1458h-189l301 1282l-754 -1282h-165l-209 1280l-258 -1280h-187z" />
    <glyph glyph-name="N" unicode="N" horiz-adv-x="1478" 
d="M6 0l311 1458h209l523 -1247l249 1247h187l-314 -1458h-210l-521 1233l-247 -1233h-187z" />
    <glyph glyph-name="O" unicode="O" horiz-adv-x="1554" 
d="M854 1325q-250 0 -416 -204t-166 -513q0 -221 117 -350t318 -129q255 0 421 210t166 527q0 213 -114 336q-115 123 -326 123zM870 1491q285 0 452 -168t167 -455q0 -244 -92 -446q-93 -202 -277 -329q-184 -126 -426 -126q-286 0 -450 172t-164 469q0 240 92 439t274 321
t424 123z" />
    <glyph glyph-name="P" unicode="P" horiz-adv-x="1327" 
d="M760 760q174 0 273 76t100 231q1 121 -77 181q-64 49 -292 48h-281l-114 -536h391zM858 1458q465 0 465 -379q0 -207 -135 -343t-387 -136h-465l-129 -600h-193l312 1458h532z" />
    <glyph glyph-name="Q" unicode="Q" horiz-adv-x="1554" 
d="M872 1323q-258 0 -429 -204t-171 -511q0 -225 116 -354t319 -129q109 0 211 45l-138 129l111 117l164 -158q111 98 175 258q65 160 64 338q0 219 -112 344q-113 125 -310 125zM684 -35q-284 0 -444 176t-160 463q0 383 227 633t574 250q291 0 449 -173t159 -460
q0 -215 -82 -404t-227 -311l180 -174l-113 -115l-203 199q-156 -84 -360 -84z" />
    <glyph glyph-name="R" unicode="R" horiz-adv-x="1402" 
d="M768 782q292 0 371 142q33 61 32 153q0 217 -286 217h-408l-108 -512h399zM971 100q0 59 14 174t14 169q0 102 -48 145q-31 29 -96 35t-122 6h-395l-135 -629h-191l307 1458h594q203 0 326 -87t123 -281q0 -158 -85 -260t-241 -138q150 -61 150 -235l-23 -338
q0 -74 25 -119h-199q-18 41 -18 100z" />
    <glyph glyph-name="S" unicode="S" horiz-adv-x="1327" 
d="M1247 1030h-184q2 10 2 25q0 272 -338 272q-158 -1 -250 -67t-92 -181q0 -83 46 -124q19 -17 29 -28t39 -23q28 -12 39 -19t45 -17t43 -12t46 -12q36 -10 70 -18q173 -41 258 -91q84 -50 111 -97q56 -96 56 -206q0 -233 -166 -348q-167 -115 -419 -115t-399 123
q-146 123 -146 340q0 29 2 47h184v-28q0 -164 93 -244q94 -80 266 -80t286 71t113 212q0 97 -57 142t-97 59q-56 21 -206 63q-150 41 -234 84q-186 96 -186 297t142 315t387 115q245 0 381 -109t136 -303v-43z" />
    <glyph glyph-name="T" unicode="T" horiz-adv-x="1175" 
d="M1335 1458l-32 -162h-490l-274 -1296h-193l275 1296h-498l35 162h1177z" />
    <glyph glyph-name="U" unicode="U" horiz-adv-x="1478" 
d="M123 403q0 76 29 220l176 835h192l-178 -852q-27 -133 -27 -188q0 -139 89 -213t269 -74t286 81q44 34 78 102t50 124q16 57 39 162l183 858h192l-207 -983q-54 -260 -204 -383t-399 -123t-409 102q-159 102 -159 332z" />
    <glyph glyph-name="V" unicode="V" horiz-adv-x="1251" 
d="M590 0h-219l-209 1458h198l152 -1268l696 1268h207z" />
    <glyph glyph-name="W" unicode="W" horiz-adv-x="1896" 
d="M1341 0h-202l-95 1262l-579 -1262h-209l-92 1458h192l50 -1247l573 1247h215l84 -1231l534 1231h201z" />
    <glyph glyph-name="X" unicode="X" horiz-adv-x="1251" 
d="M1360 1458l-600 -723l368 -735h-200l-299 610l-496 -610h-225l637 764l-348 694h206l275 -569l461 569h221z" />
    <glyph glyph-name="Y" unicode="Y" horiz-adv-x="1251" 
d="M1421 1458l-712 -878l-123 -580h-189l125 596l-385 862h207l295 -696l555 696h227z" />
    <glyph glyph-name="Z" unicode="Z" horiz-adv-x="1251" 
d="M1323 1458l-35 -162l-1095 -1132h925l-35 -164h-1163l33 162l1098 1132h-832l37 164h1067z" />
    <glyph glyph-name="bracketleft" unicode="[" horiz-adv-x="530" 
d="M719 1479l-27 -133h-221l-336 -1596h221l-30 -135h-385l393 1864h385z" />
    <glyph glyph-name="backslash" unicode="\" horiz-adv-x="681" 
d="M840 -31h-148l-848 1512h148z" />
    <glyph glyph-name="bracketright" unicode="]" horiz-adv-x="530" 
d="M524 1479l-397 -1864h-387l29 133h221l342 1598h-221l28 133h385z" />
    <glyph glyph-name="asciicircum" unicode="^" horiz-adv-x="1228" 
d="M209 575l346 850h129l346 -850h-141l-273 689l-266 -689h-141z" />
    <glyph glyph-name="underscore" unicode="_" horiz-adv-x="1024" 
d="M0 -256v102h1024v-102h-1024z" />
    <glyph glyph-name="grave" unicode="`" horiz-adv-x="454" 
d="M438 1208h-135l-205 297h205z" />
    <glyph glyph-name="a" unicode="a" horiz-adv-x="1062" 
d="M731 545q-41 -47 -237 -60t-262 -58q-78 -50 -78 -164q0 -67 54 -113t148 -46q158 0 238 96t119 265zM561 1083q190 0 292 -64q101 -65 101 -179q0 -47 -24 -154l-99 -438q-8 -35 -8 -70q0 -57 56 -57q18 0 51 8l-23 -133q-55 -18 -115 -18t-96 30q-37 31 -37 86
q0 18 3 35q-129 -160 -351 -160q-157 0 -245 78t-89 217q0 86 34 150t79 98q105 82 397 102q13 2 49 4t51 4t45 5q30 4 43 10t35 15q22 8 32 22t24 39q16 25 16 91q0 134 -215 134q-119 0 -189 -45t-97 -154h-166q25 168 140 256q116 88 306 88z" />
    <glyph glyph-name="b" unicode="b" horiz-adv-x="1214" 
d="M928 644q0 136 -71 218t-202 82t-226 -92t-135 -215t-40 -250t75 -202t199 -75t220 84q180 158 180 450zM531 -31q-269 0 -345 228l-39 -197h-161l313 1458h172l-113 -532q147 160 341 160t299 -124q105 -122 106 -323q0 -268 -152 -469t-421 -201z" />
    <glyph glyph-name="c" unicode="c" horiz-adv-x="1099" 
d="M41 412q0 274 163 476t431 202q179 0 285 -96t106 -253v-20h-174v8q0 103 -60 159t-169 56q-174 0 -290 -150t-116 -378q0 -143 70 -222t185 -79t196 61q80 61 116 170h181q-53 -180 -181 -278t-322 -98q-192 0 -306 116q-114 117 -115 326z" />
    <glyph glyph-name="d" unicode="d" horiz-adv-x="1214" 
d="M895 674q1 124 -71 194t-200 70t-226 -87q-184 -164 -183 -452q0 -289 262 -288q135 0 235 93q99 93 141 219t42 251zM434 -33q-188 0 -292 111q-103 111 -103 299q0 402 274 605q139 103 320 103q121 0 208 -50t113 -138l117 561h172l-307 -1458h-164l33 145
q-115 -178 -371 -178z" />
    <glyph glyph-name="e" unicode="e" horiz-adv-x="1099" 
d="M842 659q0 137 -67 210t-193 73t-222 -85t-135 -239h615q2 18 2 41zM450 -37q-196 0 -312 123t-115 330q-1 284 163 478t406 193q194 -1 306 -117t112 -321q0 -76 -15 -170h-792q-6 -33 -6 -73q0 -139 73 -219q74 -79 203 -78q223 0 299 223h178q-41 -174 -173 -272
q-131 -98 -327 -97z" />
    <glyph glyph-name="f" unicode="f" horiz-adv-x="606" 
d="M618 1477q86 0 144 -17l-31 -147q-41 12 -97 12q-56 1 -79 -19t-35 -30t-22 -38t-17 -44t-22 -90l-13 -47h205l-30 -146h-203l-195 -911h-176l195 911h-179l31 146h178l9 41q20 98 36 152t54 114q71 113 247 113z" />
    <glyph glyph-name="g" unicode="g" horiz-adv-x="1175" 
d="M219 409q0 -124 70 -200t190 -76q162 0 273 153t110 378q0 128 -72 202t-191 74q-120 0 -210 -88t-130 -204t-40 -239zM387 -299q203 0 287 148q39 71 78 217l22 88q-111 -164 -336 -164q-174 0 -286 118t-111 295q0 177 62 327q61 150 191 252q130 101 302 101
q125 0 214 -58t120 -161l37 193h163l-188 -889q-60 -281 -129 -391t-171 -160q-102 -51 -281 -51t-293 89t-115 241h176q16 -195 258 -195z" />
    <glyph glyph-name="h" unicode="h" 
d="M717 1083q139 1 224 -71t85 -191q0 -41 -16 -123q-94 -453 -146 -698h-178l131 621q23 99 23 167t-45 106t-129 38q-154 0 -255 -108t-135 -267l-118 -557h-174l309 1458h174l-123 -561q152 186 373 186z" />
    <glyph glyph-name="i" unicode="i" horiz-adv-x="454" 
d="M475 1458l-45 -213h-176l45 213h176zM391 1055l-223 -1055h-176l223 1055h176z" />
    <glyph glyph-name="j" unicode="j" horiz-adv-x="454" 
d="M469 1458l-43 -213h-176l45 213h174zM-147 -426q-53 0 -105 12l33 146q100 -30 139 16q25 29 74 268l217 1039h174l-252 -1198q-31 -143 -87 -213t-193 -70z" />
    <glyph glyph-name="k" unicode="k" horiz-adv-x="985" 
d="M463 1458l-184 -868l542 467h234l-467 -389l264 -668h-197l-204 559l-218 -182l-81 -377h-168l309 1458h170z" />
    <glyph glyph-name="l" unicode="l" horiz-adv-x="454" 
d="M434 1458l-307 -1458h-176l309 1458h174z" />
    <glyph glyph-name="m" unicode="m" horiz-adv-x="1744" 
d="M716 1085q110 0 180 -52t79 -142q156 186 375 186q133 1 211 -65t77 -176q0 -63 -14 -127l-151 -709h-177l134 627q24 113 24 172t-42 94t-118 35q-125 0 -223 -94t-133 -263l-119 -571h-178l133 625q29 135 29 186t-39 86t-107 35q-137 0 -237 -96t-131 -242l-125 -594
h-178l225 1057h164l-37 -164q64 86 166 139t212 53z" />
    <glyph glyph-name="n" unicode="n" 
d="M1026 827q0 -70 -27 -190l-135 -637h-178l137 645q17 72 17 142q0 69 -46 107t-128 38q-158 0 -257 -108t-133 -271l-116 -553h-176l223 1057h164l-35 -168q154 195 381 194q137 1 223 -71t86 -185z" />
    <glyph glyph-name="o" unicode="o" horiz-adv-x="1175" 
d="M496 111q166 1 282 157t115 379q0 143 -72 221t-201 78t-225 -82t-141 -198t-45 -252q0 -138 76 -220t211 -83zM627 1090q209 0 327 -113t117 -324q0 -281 -163 -483t-431 -203q-211 0 -327 119t-115 336q0 272 164 470t428 198z" />
    <glyph glyph-name="p" unicode="p" horiz-adv-x="1214" 
d="M648 942q-132 0 -225 -93q-171 -171 -171 -460q0 -127 77 -203t206 -75q163 1 277 153t114 375q0 145 -73 224t-205 79zM698 1083q186 -1 295 -121t109 -329q0 -274 -152 -468t-420 -194t-333 207l-123 -586h-174l311 1465h162l-33 -150q137 176 358 176z" />
    <glyph glyph-name="q" unicode="q" horiz-adv-x="1214" 
d="M623 940q-172 0 -291 -157t-119 -386q0 -137 66 -210t180 -73t198 53q150 93 208 316q26 96 26 206q1 111 -73 181t-195 70zM428 -29q-186 0 -290 110q-103 110 -103 310q0 272 163 483t422 211t338 -200l35 172h160l-307 -1465h-172l117 547q-78 -90 -161 -129t-202 -39
z" />
    <glyph glyph-name="r" unicode="r" horiz-adv-x="681" 
d="M678 899q-182 0 -274 -118t-134 -312l-102 -469h-176l225 1057h164l-51 -226q143 252 385 252q36 0 65 -4l-41 -184q-29 4 -61 4z" />
    <glyph glyph-name="s" unicode="s" horiz-adv-x="985" 
d="M899 748h-172q-2 193 -233 192q-98 0 -156 -39t-59 -108q0 -69 95 -116q32 -17 146 -61t156 -67q43 -22 85 -55q77 -60 78 -203q1 -142 -118 -233t-319 -91t-310 92q-111 92 -110 265v10h170v-4q0 -106 70 -164q71 -57 191 -57q121 0 187 47t66 125q0 47 -35 85t-66 52
t-63 28t-74 28q-41 14 -52 20t-48 21t-50 25q-14 10 -44 27q-30 19 -42 33t-31 37q-50 61 -50 154q0 139 104 218t287 78q397 0 397 -325v-14z" />
    <glyph glyph-name="t" unicode="t" horiz-adv-x="645" 
d="M281 207q0 -66 100 -66q57 0 108 11l-32 -150q-68 -10 -129 -10q-229 0 -230 164q0 35 29 178l121 577h-180l30 146h181l67 311h176l-67 -311h207l-31 -146h-207l-137 -647q-6 -35 -6 -57z" />
    <glyph glyph-name="u" unicode="u" 
d="M47 236q0 55 27 182l133 639h180l-137 -641q-23 -98 -23 -154q0 -145 189 -145q139 0 233 102t125 252l123 586h176l-225 -1057h-162l37 162q-135 -190 -363 -191q-145 0 -229 71t-84 194z" />
    <glyph glyph-name="v" unicode="v" horiz-adv-x="985" 
d="M362 178l461 879h189l-588 -1057h-186l-152 1057h184z" />
    <glyph glyph-name="w" unicode="w" horiz-adv-x="1554" 
d="M1014 0h-185l-55 821l-381 -821h-184l-127 1057h186l68 -840l383 840h196l54 -840l403 840h189z" />
    <glyph glyph-name="x" unicode="x" horiz-adv-x="985" 
d="M1012 1057l-453 -510l268 -547h-200l-195 430l-356 -430h-213l495 559l-233 498h199l163 -381l316 381h209z" />
    <glyph glyph-name="y" unicode="y" horiz-adv-x="985" 
d="M-6 -428q-53 0 -125 20l35 148q109 -32 161 -11t121 135q25 40 29 46l57 90l-186 1057h186l127 -834l445 834h190l-610 -1086q-98 -172 -145 -237q-117 -162 -285 -162z" />
    <glyph glyph-name="z" unicode="z" horiz-adv-x="909" 
d="M920 1057l-27 -123l-743 -789h634l-30 -145h-867l29 129l741 782h-575l33 146h805z" />
    <glyph glyph-name="braceleft" unicode="{" horiz-adv-x="681" 
d="M303 344q0 -78 -30 -226q-29 -148 -29 -224t50 -120t169 -53l-23 -106q-190 12 -273 85t-83 218q0 72 29 219t29 215t-45 105q-44 37 -156 47l16 86q160 16 215 80t88 227l41 197q47 219 166 300t338 87l-23 -107q-152 -14 -220 -80t-99 -213l-27 -131
q-38 -184 -104 -281t-232 -122q203 -29 203 -203z" />
    <glyph glyph-name="bar" unicode="|" horiz-adv-x="454" 
d="M160 -438v2048h135v-2048h-135z" />
    <glyph glyph-name="braceright" unicode="}" horiz-adv-x="681" 
d="M256 752q0 78 30 226t30 224t-50 120q-49 44 -168 52l21 107q190 -12 274 -85t84 -218q0 -72 -30 -220q-29 -148 -29 -214q0 -68 44 -105t159 -47l-19 -86q-160 -16 -215 -80t-88 -227l-41 -197q-47 -219 -166 -300t-336 -87l21 106q153 14 223 80t98 213l25 131
q35 182 102 281q68 98 234 123q-203 29 -203 203z" />
    <glyph glyph-name="asciitilde" unicode="~" horiz-adv-x="1228" 
d="M443 512q-95 32 -148 33q-53 0 -97 -46t-55 -118h-92q10 121 75 203t181 82q91 0 283 -71q36 -13 82 -29t99 -32q52 -18 112 -18q59 0 101 46t52 114h88q-14 -135 -81 -208t-161 -73q-94 -1 -439 117z" />
    <glyph glyph-name="sterling" unicode="&#xa3;" 
d="M724 133q52 0 83 10t74 36t61 34l64 -147q-133 -102 -263 -103q-82 0 -220 49t-201 49q-106 0 -254 -90l-62 156q260 201 260 389q0 74 -30 160h-168l18 86h127q-43 137 -43 237q0 209 138 342t354 133t330 -109q114 -110 114 -318q0 -31 -2 -54h-172v33q0 137 -69 213
t-207 76t-224 -89t-86 -233q0 -86 43 -231h320l-17 -86h-280q22 -68 22 -161t-56 -175t-206 -197q132 59 208 59t184 -34q108 -35 160 -35z" />
    <glyph glyph-name="currency" unicode="&#xa4;" 
d="M561 1014q-127 0 -217 -90t-90 -217t90 -219t217 -91q127 0 218 91q91 90 91 218t-91 218t-218 90zM129 708q0 142 88 261l-131 131l82 82l131 -131q127 88 261 88t265 -88l129 131l82 -82l-131 -131q53 -72 71 -124t19 -126q0 -152 -90 -275l131 -131l-82 -82l-131 131
q-57 -33 -86 -47q-81 -39 -176 -41q-143 0 -260 88l-131 -131l-82 82l131 131q-90 122 -90 264z" />
    <glyph glyph-name="brokenbar" unicode="&#xa6;" horiz-adv-x="454" 
d="M160 842v512h135v-512h-135zM160 -182v512h135v-512h-135z" />
    <glyph glyph-name="section" unicode="&#xa7;" 
d="M258 694q0 -82 137 -229l246 -264q94 20 145 69q52 50 52 112t-32 116t-110 135l-252 262q-82 -15 -134 -67t-52 -134zM700 1333q-88 0 -141 -46q-53 -47 -53 -107t26 -109t51 -76q24 -27 70 -73l176 -179q85 -87 133 -165t48 -184t-82 -193q-82 -86 -215 -105
q57 -76 57 -178q0 -137 -105 -225t-273 -88t-273 95q-104 95 -105 253v29h168v-21q0 -97 60 -155t156 -58q94 0 147 45t53 115t-34 115q-58 77 -144 163l-199 215q-131 141 -131 273t79 220q79 87 210 110q-47 76 -47 157q0 139 102 227t265 89q163 0 263 -86t99 -228
q0 -29 -2 -47h-168l2 25q0 90 -52 141q-53 51 -141 51z" />
    <glyph glyph-name="copyright" unicode="&#xa9;" horiz-adv-x="1638" 
d="M836 283q-178 0 -297 126q-119 127 -119 319t114 319t271 127t259 -88t114 -218h-107q-18 96 -85 152q-66 56 -176 55q-110 0 -188 -95t-77 -250q0 -155 81 -253t210 -98q92 0 156 52t83 140h109q-16 -127 -114 -207t-234 -81zM813 1405q-283 0 -483 -200
q-200 -201 -199 -483q0 -282 200 -482q201 -200 483 -199q282 0 482 200q200 201 199 483q1 282 -199 482t-483 199zM813 1485q315 0 539 -223q224 -222 223 -538q0 -316 -223 -540q-222 -224 -538 -223q-316 0 -540 223q-223 222 -223 538t223 540q224 223 539 223z" />
    <glyph glyph-name="guillemotleft" unicode="&#xab;" horiz-adv-x="948" 
d="M856 868l-41 -182l-244 -135l172 -193l-32 -163l-252 278l45 189zM457 868l-37 -180l-246 -139l176 -191l-37 -165l-252 280l45 189z" />
    <glyph glyph-name="logicalnot" unicode="&#xac;" horiz-adv-x="1228" 
d="M47 664v122h1028v-514h-127v392h-901z" />
    <glyph glyph-name="registered" unicode="&#xae;" horiz-adv-x="819" 
d="M414 1126h67q109 0 109 62q0 57 -111 57h-65v-119zM342 1303h143q176 0 177 -113q0 -63 -72 -92q66 -29 65 -123q0 -37 11 -57h-74q-8 23 -9 69t-21 64t-95 18h-53v-151h-72v385zM489 1425q-131 0 -223 -93t-92 -224t92 -224t223 -93t224 93q92 93 92 224t-92 224
q-93 93 -224 93zM489 1485q156 0 266 -111q109 -110 109 -266t-110 -266t-265 -109q-155 0 -265 110q-110 109 -110 265t110 266q109 110 265 111z" />
    <glyph glyph-name="degree" unicode="&#xb0;" horiz-adv-x="819" 
d="M491 1337q-81 0 -137 -57t-57 -137q0 -80 56 -137q55 -58 137 -58t139 58t57 137q0 80 -57 137t-138 57zM491 1454q128 0 219 -91t91 -219t-91 -219t-219 -91t-220 91q-91 91 -91 219t91 219q92 91 220 91z" />
    <glyph glyph-name="plusminus" unicode="&#xb1;" horiz-adv-x="1228" 
d="M43 -20v122h1028v-122h-1028zM489 190v355h-446v123h446v356h136v-356h446v-123h-446v-355h-136z" />
    <glyph glyph-name="mu" unicode="&#xb5;" 
d="M408 0q-92 0 -145 35q-52 35 -85 117l-123 -576h-159l313 1481h178l-113 -522q-29 -133 -28 -201q0 -203 182 -203q274 0 360 412l109 514h174l-225 -1057h-160l35 152q-125 -152 -313 -152z" />
    <glyph glyph-name="paragraph" unicode="&#xb6;" horiz-adv-x="1228" 
d="M113 885q0 266 184 420t453 153h514l-23 -108h-111l-362 -1710h-131l364 1710h-251l-363 -1710h-131l190 890q-162 16 -248 108t-85 247z" />
    <glyph glyph-name="periodcentered" unicode="&#xb7;" horiz-adv-x="569" 
d="M426 713l-49 -228h-238l47 228h240z" />
    <glyph glyph-name="guillemotright" unicode="&#xbb;" horiz-adv-x="948" 
d="M563 870l254 -280l-47 -187l-350 -208l39 182l243 139l-174 189zM168 868l250 -278l-43 -187l-352 -210l38 184l244 137l-172 193z" />
    <glyph glyph-name="divide" unicode="&#xf7;" horiz-adv-x="1228" 
d="M475 770v231h197v-231h-197zM475 49v230h197v-230h-197zM59 453v120h1028v-120h-1028z" />
    <glyph glyph-name="florin" unicode="&#x192;" 
d="M109 -340q-78 0 -129 10l38 146q47 -8 92 -8t86 40q40 41 64 132l219 796h-192l39 139h190l66 236q44 159 118 235t234 76q70 0 135 -16l-39 -146q-168 45 -227 -55q-32 -51 -58 -147l-49 -183h228l-37 -139h-228l-202 -743q-27 -95 -46 -147t-60 -112
q-76 -114 -242 -114z" />
    <glyph glyph-name="afii10023" unicode="&#x401;" horiz-adv-x="1251" 
d="M1149 1796l-41 -205h-184l43 205h182zM817 1796l-43 -205h-180l43 205h180zM1329 1458l-33 -166h-819l-98 -461h762l-31 -161h-764l-108 -506h829l-37 -164h-1018l310 1458h1007z" />
    <glyph glyph-name="afii10051" unicode="&#x402;" horiz-adv-x="1527" 
d="M1198 481q0 263 -262 263q-136 0 -246 -105q-110 -104 -147 -289l-74 -350h-193l275 1296h-426l35 162h1167l-35 -162h-549l-118 -559h4q63 82 167 125t214 43q178 0 282 -119q104 -118 104 -282q1 -312 -188 -542q-88 -108 -222 -173t-290 -65h-26l35 165
q237 13 365 187t128 405z" />
    <glyph glyph-name="afii10052" unicode="&#x403;" horiz-adv-x="1120" 
d="M207 0h-193l310 1458h956l-33 -162h-766zM1083 1843l-282 -297h-139l190 297h231z" />
    <glyph glyph-name="afii10053" unicode="&#x404;" horiz-adv-x="1478" 
d="M676 129q190 0 309 95t164 272h197q-54 -248 -230 -390t-444 -141q-268 0 -428 169t-160 466q0 240 93 440t279 327q186 126 424 126q239 0 386 -124t157 -329h-192q-19 152 -109 221t-262 68q-209 0 -352 -138t-199 -349h695l-33 -162h-690q-4 -53 -5 -80
q0 -213 106 -342q104 -129 294 -129z" />
    <glyph glyph-name="afii10054" unicode="&#x405;" horiz-adv-x="1327" 
d="M1247 1030h-184q2 10 2 25q0 272 -338 272q-158 -1 -250 -67t-92 -181q0 -83 46 -124q19 -17 29 -28t39 -23q28 -12 39 -19t45 -17t43 -12t46 -12q36 -10 70 -18q173 -41 258 -91q84 -50 111 -97q56 -96 56 -206q0 -233 -166 -348q-167 -115 -419 -115t-399 123
q-146 123 -146 340q0 29 2 47h184v-28q0 -164 93 -244q94 -80 266 -80t286 71t113 212q0 97 -57 142t-97 59q-56 21 -206 63q-150 41 -234 84q-186 96 -186 297t142 315t387 115q245 0 381 -109t136 -303v-43z" />
    <glyph glyph-name="afii10055" unicode="&#x406;" horiz-adv-x="530" 
d="M518 1458l-307 -1458h-195l310 1458h192z" />
    <glyph glyph-name="afii10056" unicode="&#x407;" horiz-adv-x="530" 
d="M748 1792l-41 -205h-185l43 205h183zM416 1792l-43 -205h-180l43 205h180zM518 1458l-307 -1458h-195l310 1458h192z" />
    <glyph glyph-name="afii10057" unicode="&#x408;" horiz-adv-x="1062" 
d="M382 123q162 0 223 106q41 72 59 156t20 92l207 981h192l-200 -952q-56 -267 -113 -361q-57 -95 -127 -129q-106 -49 -271 -50t-269 88q-103 89 -103 255q0 63 18 168h187q-19 -95 -20 -175q-1 -79 53 -129t144 -50z" />
    <glyph glyph-name="afii10058" unicode="&#x409;" horiz-adv-x="2048" 
d="M1743 469q1 121 -77 181q-30 22 -89 34t-95 13t-108 1h-198l-115 -536h309q174 0 274 76t99 231zM1933 481q0 -207 -135 -344t-387 -137h-575l276 1296h-477l-182 -755q-135 -571 -433 -572q-106 0 -155 25l37 164q28 -18 108 -18t146 104q66 106 129 372l200 842h854
l-129 -598h258q465 0 465 -379z" />
    <glyph glyph-name="afii10059" unicode="&#x40a;" horiz-adv-x="2048" 
d="M1745 469q1 121 -77 181q-30 22 -89 34t-95 13t-108 1h-209l-114 -536h319q174 0 274 76t99 231zM1935 481q0 -207 -135 -344t-387 -137h-586l150 698h-621l-149 -698h-193l310 1458h190l-123 -598h621l125 598h192l-127 -598h268q465 0 465 -379z" />
    <glyph glyph-name="afii10060" unicode="&#x40b;" horiz-adv-x="1527" 
d="M983 905q412 0 412 -313q0 -63 -15 -131l-98 -461h-195l95 444q16 70 16 115q0 176 -252 176q-137 0 -290 -46q-40 -11 -48 -13l-143 -676h-193l275 1296h-426l35 162h1167l-35 -162h-549l-94 -452l68 16q186 45 270 45z" />
    <glyph glyph-name="afii10061" unicode="&#x40c;" horiz-adv-x="1366" 
d="M1145 1843l-283 -297h-139l190 297h232zM1452 1458l-702 -598l471 -860h-217l-400 743l-297 -241l-104 -502h-191l307 1458h191l-150 -723l832 723h260z" />
    <glyph glyph-name="afii10062" unicode="&#x40e;" horiz-adv-x="1251" 
d="M800 1681q78 0 144 43t94 117h105q-33 -125 -126 -204t-221 -79t-205 80t-67 203h105q4 -76 48 -118t123 -42zM148 -35q-106 0 -181 37l35 164q51 -37 163 -37t253 201l43 61l-311 1067h200l244 -872l598 872h219l-813 -1171q-124 -178 -234 -250t-216 -72z" />
    <glyph glyph-name="afii10145" unicode="&#x40f;" horiz-adv-x="1478" 
d="M690 0l-76 -362h-192l76 362h-484l310 1458h192l-274 -1296h770l274 1296h193l-310 -1458h-479z" />
    <glyph glyph-name="afii10017" unicode="&#x410;" horiz-adv-x="1366" 
d="M950 598l-108 678l-391 -678h499zM983 1458l260 -1458h-199l-69 444h-613l-258 -444h-219l881 1458h217z" />
    <glyph glyph-name="afii10018" unicode="&#x411;" horiz-adv-x="1402" 
d="M1059 469q1 121 -77 181q-30 22 -89 34t-95 13t-108 1h-334l-114 -536h444q174 0 274 76t99 231zM784 860q465 0 465 -379q0 -207 -135 -344t-387 -137h-713l310 1458h999l-35 -168h-807l-90 -430h393z" />
    <glyph glyph-name="afii10019" unicode="&#x412;" horiz-adv-x="1402" 
d="M586 154q172 0 263 19t152 98t62 184q0 225 -279 225h-438l-115 -526h355zM807 829q141 0 229 68t88 207q0 100 -63 143q-63 42 -175 46q-30 1 -89 1h-324l-96 -465h430zM831 1458q277 0 383 -88q43 -36 72 -100t29 -152q0 -135 -74 -232t-205 -126q102 -29 160 -108
t57 -189q0 -199 -139 -334q-61 -61 -149 -91q-87 -30 -149 -34t-132 -4h-670l308 1458h509z" />
    <glyph glyph-name="afii10020" unicode="&#x413;" horiz-adv-x="1120" 
d="M207 0h-193l310 1458h956l-33 -162h-766z" />
    <glyph glyph-name="afii10021" unicode="&#x414;" horiz-adv-x="1478" 
d="M987 162l240 1134h-551l-43 -204q-55 -264 -159 -526t-204 -404h717zM1229 -362h-187l78 362h-1054l-78 -362h-187l113 524h143q115 150 230 434t176 580l59 282h932l-274 -1296h161z" />
    <glyph glyph-name="afii10022" unicode="&#x415;" horiz-adv-x="1251" 
d="M1329 1458l-33 -166h-819l-98 -461h762l-31 -161h-764l-108 -506h829l-37 -164h-1018l310 1458h1007z" />
    <glyph glyph-name="afii10024" unicode="&#x416;" horiz-adv-x="2048" 
d="M2173 1458l-711 -604l467 -854h-219l-389 733l-223 -188l-115 -545h-188l118 559l-129 174l-684 -733h-252l832 872l-442 586h223l500 -682l143 682h188l-139 -661l762 661h258z" />
    <glyph glyph-name="afii10025" unicode="&#x417;" horiz-adv-x="1327" 
d="M223 451q1 -324 365 -324q178 0 299 96t121 256q0 119 -90 163t-246 44q-78 0 -140 -4l33 160q33 -4 127 -4q160 0 258 74t99 231q0 193 -283 192q-168 1 -269 -69t-135 -228h-186q35 233 200 343t389 110t351 -92q127 -91 127 -245t-86 -254t-205 -124v-6
q119 -25 183 -105q63 -81 63 -192q0 -231 -178 -367t-435 -137q-257 0 -403 123q-145 123 -145 340q0 29 2 47h184v-28z" />
    <glyph glyph-name="afii10026" unicode="&#x418;" horiz-adv-x="1478" 
d="M12 0l314 1458h190l-258 -1218h4l969 1218h246l-310 -1458h-192l258 1225h-4l-969 -1225h-248z" />
    <glyph glyph-name="afii10027" unicode="&#x419;" horiz-adv-x="1478" 
d="M12 0l314 1458h190l-258 -1218h4l969 1218h246l-310 -1458h-192l258 1225h-4l-969 -1225h-248zM906 1681q79 0 145 43t94 117h104q-33 -125 -126 -204t-221 -79t-205 80t-66 203h104q4 -76 48 -118t123 -42z" />
    <glyph glyph-name="afii10028" unicode="&#x41a;" horiz-adv-x="1366" 
d="M1452 1458l-702 -598l471 -860h-217l-400 743l-297 -241l-104 -502h-191l307 1458h191l-150 -723l832 723h260z" />
    <glyph glyph-name="afii10029" unicode="&#x41b;" horiz-adv-x="1402" 
d="M1403 1458l-311 -1458h-193l277 1296h-541l-182 -755q-135 -571 -433 -572q-106 0 -155 25l37 164q28 -18 108 -18t146 104q66 106 129 372l200 842h918z" />
    <glyph glyph-name="afii10030" unicode="&#x41c;" horiz-adv-x="1781" 
d="M12 0l316 1458h260l198 -1253l730 1253h266l-309 -1458h-189l301 1282l-754 -1282h-165l-209 1280l-258 -1280h-187z" />
    <glyph glyph-name="afii10031" unicode="&#x41d;" horiz-adv-x="1478" 
d="M1475 1458l-306 -1458h-194l143 680h-766l-145 -680h-193l310 1458h190l-127 -616h766l129 616h193z" />
    <glyph glyph-name="afii10032" unicode="&#x41e;" horiz-adv-x="1554" 
d="M854 1325q-250 0 -416 -204t-166 -513q0 -221 117 -350t318 -129q255 0 421 210t166 527q0 213 -114 336q-115 123 -326 123zM870 1491q285 0 452 -168t167 -455q0 -244 -92 -446q-93 -202 -277 -329q-184 -126 -426 -126q-286 0 -450 172t-164 469q0 240 92 439t274 321
t424 123z" />
    <glyph glyph-name="afii10033" unicode="&#x41f;" horiz-adv-x="1478" 
d="M1475 1458l-306 -1458h-194l272 1296h-766l-274 -1296h-193l310 1458h1151z" />
    <glyph glyph-name="afii10034" unicode="&#x420;" horiz-adv-x="1327" 
d="M760 760q174 0 273 76t100 231q1 121 -77 181q-64 49 -292 48h-281l-114 -536h391zM858 1458q465 0 465 -379q0 -207 -135 -343t-387 -136h-465l-129 -600h-193l312 1458h532z" />
    <glyph glyph-name="afii10035" unicode="&#x421;" horiz-adv-x="1478" 
d="M672 -35q-268 0 -428 169t-160 466q0 240 93 440t279 327q186 126 428 126q243 0 391 -131t148 -346v-25h-188q-8 178 -99 258q-90 80 -274 80q-184 -1 -321 -113t-201 -275t-64 -359t106 -324q106 -129 294 -129q190 0 309 95t164 272h197q-54 -248 -230 -390t-444 -141
z" />
    <glyph glyph-name="afii10036" unicode="&#x422;" horiz-adv-x="1175" 
d="M1335 1458l-32 -162h-490l-274 -1296h-193l275 1296h-498l35 162h1177z" />
    <glyph glyph-name="afii10037" unicode="&#x423;" horiz-adv-x="1251" 
d="M148 -35q-106 0 -181 37l35 164q51 -37 163 -37t253 201l43 61l-311 1067h200l244 -872l598 872h219l-813 -1171q-124 -178 -234 -250t-216 -72z" />
    <glyph glyph-name="afii10038" unicode="&#x424;" horiz-adv-x="1593" 
d="M256 674q0 -152 98 -238t260 -102l174 819q-228 0 -380 -127t-152 -352zM1339 807q0 152 -99 241t-259 105l-174 -819q227 0 380 125q152 125 152 348zM1536 807q0 -293 -209 -462t-514 -169h-39l-37 -176h-192l37 176q-227 10 -375 143q-147 133 -147 343t100 356
q102 147 264 220t358 73h39l31 147h192l-30 -147q226 -11 374 -147t148 -357z" />
    <glyph glyph-name="afii10039" unicode="&#x425;" horiz-adv-x="1251" 
d="M1360 1458l-600 -723l368 -735h-200l-299 610l-496 -610h-225l637 764l-348 694h206l275 -569l461 569h221z" />
    <glyph glyph-name="afii10040" unicode="&#x426;" horiz-adv-x="1478" 
d="M1049 -362l77 362h-1112l310 1458h192l-274 -1296h753l275 1296h192l-274 -1296h160l-113 -524h-186z" />
    <glyph glyph-name="afii10041" unicode="&#x427;" horiz-adv-x="1366" 
d="M586 598q-236 0 -332 99t-96 241q0 43 12 104l88 416h193l-86 -399q-10 -47 -11 -96q0 -201 269 -201q154 0 415 55l138 641h192l-311 -1458h-193l140 649q-238 -51 -418 -51z" />
    <glyph glyph-name="afii10042" unicode="&#x428;" horiz-adv-x="2197" 
d="M12 0l312 1458h192l-274 -1296h647l274 1296h193l-275 -1296h648l274 1296h192l-311 -1458h-1872z" />
    <glyph glyph-name="afii10043" unicode="&#x429;" horiz-adv-x="2217" 
d="M1888 0h-1849l309 1458h193l-273 -1294h647l273 1294h192l-272 -1294h647l273 1294h192l-272 -1294h166l-113 -526h-189z" />
    <glyph glyph-name="afii10044" unicode="&#x42a;" horiz-adv-x="1644" 
d="M961 162q174 0 273 76t99 215q0 140 -77 196q-64 49 -291 49h-293l-115 -536h404zM1524 481q0 -207 -135 -344t-388 -137h-669l274 1296h-473l33 162h668l-127 -598h352q465 0 465 -379z" />
    <glyph glyph-name="afii10045" unicode="&#x42b;" horiz-adv-x="1783" 
d="M1006 469q0 121 -78 181q-64 48 -291 48h-283l-114 -536h393q173 0 273 76t100 231zM1196 481q0 -207 -135 -344t-387 -137h-660l310 1458h192l-127 -598h342q465 0 465 -379zM1585 1458h193l-310 -1458h-192z" />
    <glyph glyph-name="afii10046" unicode="&#x42c;" horiz-adv-x="1327" 
d="M1024 469q0 121 -78 181q-30 22 -88 34q-59 12 -95 13t-108 1h-293l-114 -536h403q173 0 273 76t100 231zM1214 481q0 -207 -135 -344t-387 -137h-669l309 1458h192l-127 -598h353q464 0 464 -379z" />
    <glyph glyph-name="afii10047" unicode="&#x42d;" horiz-adv-x="1478" 
d="M1423 858q0 -240 -93 -440t-278 -327q-185 -126 -428 -126t-392 131q-148 131 -148 346v25h188q8 -178 100 -258t275 -80q225 0 373 159q147 159 192 392h-716l34 162h701v16q1 213 -105 342t-311 129q-157 0 -269 -77t-167 -222h-199q68 217 237 340t406 123
q281 0 441 -169t159 -466z" />
    <glyph glyph-name="afii10048" unicode="&#x42e;" horiz-adv-x="2048" 
d="M1370 1325q-236 0 -392 -204t-157 -513q0 -221 110 -350t300 -129q239 0 397 210t158 527q0 215 -108 337t-308 122zM1380 1491q280 0 440 -168t160 -455q0 -377 -208 -639t-553 -262q-272 0 -432 172q-159 172 -158 469q0 47 2 72h-279l-145 -680h-193l310 1458h190
l-127 -616h264q61 287 255 468t474 181z" />
    <glyph glyph-name="afii10049" unicode="&#x42f;" horiz-adv-x="1366" 
d="M745 1296q-172 0 -272 -74t-100 -221q0 -81 42 -141q20 -31 89 -53q69 -23 126 -23h396l111 512h-392zM182 989q0 203 135 336t388 133h657l-309 -1458h-193l133 623h-295l-616 -623h-242l637 639q-295 63 -295 350z" />
    <glyph glyph-name="afii10065" unicode="&#x430;" horiz-adv-x="1062" 
d="M731 545q-41 -47 -237 -60t-262 -58q-78 -50 -78 -164q0 -67 54 -113t148 -46q158 0 238 96t119 265zM561 1083q190 0 292 -64q101 -65 101 -179q0 -47 -24 -154l-99 -438q-8 -35 -8 -70q0 -57 56 -57q18 0 51 8l-23 -133q-55 -18 -115 -18t-96 30q-37 31 -37 86
q0 18 3 35q-129 -160 -351 -160q-157 0 -245 78t-89 217q0 86 34 150t79 98q105 82 397 102q13 2 49 4t51 4t45 5q30 4 43 10t35 15q22 8 32 22t24 39q16 25 16 91q0 134 -215 134q-119 0 -189 -45t-97 -154h-166q25 168 140 256q116 88 306 88z" />
    <glyph glyph-name="afii10066" unicode="&#x431;" horiz-adv-x="1175" 
d="M887 635q0 137 -68 212t-194 75q-182 0 -290 -157t-108 -351q0 -144 73 -224t202 -79q160 1 272 153t113 371zM1065 641q0 -276 -160 -475t-422 -199q-207 0 -319 116t-111 327q0 68 19 192q66 412 223 606q86 106 198 158q113 52 275 62q162 12 195 28t47 37h176
q-22 -76 -74 -128q-24 -27 -92 -53q-68 -27 -126 -32q-58 -6 -114 -9t-69 -5q-324 -23 -457 -422h6q56 98 162 158t211 61q205 0 319 -109t113 -313z" />
    <glyph glyph-name="afii10067" unicode="&#x432;" horiz-adv-x="1099" 
d="M477 141q101 -1 165 13t106 65q41 51 40 119q0 147 -182 147h-346l-72 -344h289zM635 625q88 0 143 42q56 42 56 132t-97 108q-44 8 -108 8h-275l-65 -290h346zM657 1057q257 0 322 -115q29 -51 29 -140t-54 -160t-147 -91q74 -19 115 -77t41 -138q0 -145 -101 -242
q-49 -49 -87 -60q-38 -10 -49 -16t-39 -9t-36 -5q-15 -4 -193 -4h-470l223 1057h446z" />
    <glyph glyph-name="afii10068" unicode="&#x433;" horiz-adv-x="860" 
d="M911 911h-555l-194 -911h-174l225 1057h729z" />
    <glyph glyph-name="afii10069" unicode="&#x434;" horiz-adv-x="1175" 
d="M721 145l164 766h-402l-22 -96q-45 -190 -123 -386t-141 -284h524zM930 -336h-166l72 336h-799l-72 -336h-166l103 481h114q70 94 154 296t125 390l49 226h746l-195 -912h137z" />
    <glyph glyph-name="afii10070" unicode="&#x435;" horiz-adv-x="1099" 
d="M842 659q0 137 -67 210t-193 73t-222 -85t-135 -239h615q2 18 2 41zM450 -37q-196 0 -312 123t-115 330q-1 284 163 478t406 193q194 -1 306 -117t112 -321q0 -76 -15 -170h-792q-6 -33 -6 -73q0 -139 73 -219q74 -79 203 -78q223 0 299 223h178q-41 -174 -173 -272
q-131 -98 -327 -97z" />
    <glyph glyph-name="afii10072" unicode="&#x436;" horiz-adv-x="1593" 
d="M543 516l-463 -516h-223l598 635l-316 422h201l342 -486l104 486h175l-101 -471l522 471h228l-506 -439l336 -618h-201l-254 514l-172 -147l-78 -367h-174l82 383z" />
    <glyph glyph-name="afii10073" unicode="&#x437;" horiz-adv-x="1024" 
d="M164 334q0 -221 272 -221q113 1 197 69t84 172q0 137 -236 138q-68 0 -110 -5l30 142q39 -4 97 -4q114 0 186 46t72 146q0 63 -60 96t-164 33q-229 0 -274 -211h-168q29 185 157 269t298 84q169 0 277 -74q108 -72 108 -199q0 -90 -64 -156t-147 -92q76 -23 124 -85
t48 -132q0 -172 -138 -276t-330 -104q-191 0 -309 94q-118 96 -118 258v24h168v-12z" />
    <glyph glyph-name="afii10074" unicode="&#x438;" 
d="M219 0h-233l225 1057h174l-182 -860l651 860h233l-225 -1057h-174l184 862z" />
    <glyph glyph-name="afii10075" unicode="&#x439;" 
d="M665 1298q79 0 145 43t93 117h105q-33 -125 -126 -204q-94 -78 -222 -78t-204 80t-67 202h105q4 -76 48 -118t123 -42zM219 0h-233l225 1057h174l-182 -860l651 860h233l-225 -1057h-174l184 862z" />
    <glyph glyph-name="afii10076" unicode="&#x43a;" horiz-adv-x="1024" 
d="M389 1057l-104 -488l565 488h242l-510 -424l342 -633h-201l-268 526l-217 -180l-74 -346h-174l225 1057h174z" />
    <glyph glyph-name="afii10077" unicode="&#x43b;" 
d="M18 -18q-72 0 -124 24l30 133q25 -12 86 -12q141 0 226 342l143 588h708l-225 -1057h-174l195 911h-367l-117 -475q-59 -242 -153 -348t-228 -106z" />
    <glyph glyph-name="afii10078" unicode="&#x43c;" horiz-adv-x="1402" 
d="M1130 0h-174l179 834h-7l-491 -834h-160l-135 834h-6l-178 -834h-174l225 1057h246l139 -856h4l504 856h254z" />
    <glyph glyph-name="afii10079" unicode="&#x43d;" 
d="M160 0h-174l225 1057h174l-92 -424h528l92 424h174l-225 -1057h-174l100 487h-528z" />
    <glyph glyph-name="afii10080" unicode="&#x43e;" horiz-adv-x="1175" 
d="M496 111q166 1 282 157t115 379q0 143 -72 221t-201 78t-225 -82t-141 -198t-45 -252q0 -138 76 -220t211 -83zM627 1090q209 0 327 -113t117 -324q0 -281 -163 -483t-431 -203q-211 0 -327 119t-115 336q0 272 164 470t428 198z" />
    <glyph glyph-name="afii10081" unicode="&#x43f;" 
d="M160 0h-174l225 1057h876l-225 -1057h-174l193 911h-529z" />
    <glyph glyph-name="afii10082" unicode="&#x440;" horiz-adv-x="1214" 
d="M648 942q-132 0 -225 -93q-171 -171 -171 -460q0 -127 77 -203t206 -75q163 1 277 153t114 375q0 145 -73 224t-205 79zM698 1083q186 -1 295 -121t109 -329q0 -274 -152 -468t-420 -194t-333 207l-123 -586h-174l311 1465h162l-33 -150q137 176 358 176z" />
    <glyph glyph-name="afii10083" unicode="&#x441;" horiz-adv-x="1099" 
d="M41 412q0 274 163 476t431 202q179 0 285 -96t106 -253v-20h-174v8q0 103 -60 159t-169 56q-174 0 -290 -150t-116 -378q0 -143 70 -222t185 -79t196 61q80 61 116 170h181q-53 -180 -181 -278t-322 -98q-192 0 -306 116q-114 117 -115 326z" />
    <glyph glyph-name="afii10084" unicode="&#x442;" horiz-adv-x="948" 
d="M991 911h-379l-194 -911h-174l194 911h-379l31 146h932z" />
    <glyph glyph-name="afii10085" unicode="&#x443;" horiz-adv-x="985" 
d="M-6 -428q-53 0 -125 20l35 148q109 -32 161 -11t121 135q25 40 29 46l57 90l-186 1057h186l127 -834l445 834h190l-610 -1086q-98 -172 -145 -237q-117 -162 -285 -162z" />
    <glyph glyph-name="afii10086" unicode="&#x444;" horiz-adv-x="1638" 
d="M989 -25q-57 0 -117 33t-86 72h-4l-102 -488h-172l102 488h-4q-104 -104 -239 -105q-168 0 -250 112q-82 111 -82 259q0 279 132 500q65 106 173 172t240 65q66 1 129 -35t84 -79h6l104 489h172l-104 -489h6q106 115 255 115q148 0 234 -104q86 -103 86 -275t-59 -334
t-193 -279t-311 -117zM1370 705q0 233 -190 233q-68 0 -138 -35t-108 -112l-113 -535q0 -57 48 -96t126 -39q121 0 211 103q90 104 127 232t37 249zM578 938q-121 0 -207 -100q-154 -179 -154 -467q0 -250 197 -250q78 0 145 40t90 97l113 533q-6 75 -62 111t-122 36z" />
    <glyph glyph-name="afii10087" unicode="&#x445;" horiz-adv-x="985" 
d="M1012 1057l-453 -510l268 -547h-200l-195 430l-356 -430h-213l495 559l-233 498h199l163 -381l316 381h209z" />
    <glyph glyph-name="afii10088" unicode="&#x446;" horiz-adv-x="1167" 
d="M756 -336l71 336h-839l223 1057h174l-192 -912h520l192 912h174l-192 -912h137l-102 -481h-166z" />
    <glyph glyph-name="afii10089" unicode="&#x447;" horiz-adv-x="1079" 
d="M389 420q-137 0 -212 59t-75 172q0 33 11 84l69 322h174l-65 -305q-6 -35 -6 -58q0 -133 170 -133q127 0 305 51l94 445h174l-225 -1057h-174l98 469q-47 -13 -158 -31t-180 -18z" />
    <glyph glyph-name="afii10090" unicode="&#x448;" horiz-adv-x="1656" 
d="M-14 0l225 1057h174l-195 -912h437l194 912h174l-194 -912h436l195 912h174l-226 -1057h-1394z" />
    <glyph glyph-name="afii10091" unicode="&#x449;" horiz-adv-x="1687" 
d="M-14 0l223 1057h174l-193 -912h437l192 912h174l-192 -912h436l193 912h174l-193 -912h137l-102 -481h-166l72 336h-1366z" />
    <glyph glyph-name="afii10092" unicode="&#x44a;" horiz-adv-x="1251" 
d="M969 350q0 100 -74 129q-51 20 -174 21h-266l-76 -355h338q252 0 252 205zM799 645q348 0 348 -285q0 -154 -101 -257t-286 -103h-584l193 911h-310l31 146h483l-86 -412h312z" />
    <glyph glyph-name="afii10093" unicode="&#x44b;" horiz-adv-x="1441" 
d="M731 350q0 100 -76 129q-49 20 -174 21h-219l-74 -355h291q252 0 252 205zM907 360q0 -154 -100 -257t-287 -103h-534l223 1057h172l-86 -412h266q346 0 346 -285zM1217 1057h174l-226 -1057h-174z" />
    <glyph glyph-name="afii10094" unicode="&#x44c;" horiz-adv-x="1062" 
d="M778 350q0 100 -76 129q-49 20 -174 21h-266l-74 -355h338q252 0 252 205zM954 360q0 -154 -100 -257t-287 -103h-581l223 1057h172l-86 -412h313q346 0 346 -285z" />
    <glyph glyph-name="afii10095" unicode="&#x44d;" horiz-adv-x="1099" 
d="M995 647q-1 -274 -163 -476t-431 -202q-178 -1 -284 95t-107 253v21h174v-8q0 -102 60 -158t185 -57q124 0 229 100t143 264h-447l31 139h434v25q0 143 -69 222q-70 79 -195 79q-201 0 -289 -194h-182q57 164 181 252q125 88 313 88t302 -117t115 -326z" />
    <glyph glyph-name="afii10096" unicode="&#x44e;" horiz-adv-x="1568" 
d="M913 111q156 1 265 157t108 379q0 143 -66 221q-67 78 -192 78q-176 0 -280 -161t-105 -359q-1 -150 71 -232t199 -83zM1037 1090q202 0 315 -113t112 -324q0 -281 -156 -483t-415 -203q-201 0 -313 119t-111 336l2 65h-211l-100 -487h-174l225 1057h174l-92 -424h203
q55 201 197 329t344 128z" />
    <glyph glyph-name="afii10097" unicode="&#x44f;" horiz-adv-x="1099" 
d="M528 911q-111 0 -174 -47t-63 -131q0 -135 132 -142q54 -3 103 -3h248l70 323h-316zM115 717q0 147 97 243t282 97h555l-226 -1057h-176l96 446h-221l-420 -446h-225l461 457q-223 45 -223 260z" />
    <glyph glyph-name="afii10071" unicode="&#x451;" horiz-adv-x="1099" 
d="M842 659q0 137 -67 210t-193 73t-222 -85t-135 -239h615q2 18 2 41zM946 1448l-43 -205h-182l43 205h182zM614 1448l-43 -205h-180l43 205h180zM461 -37q-233 0 -350 158q-88 115 -88 295q-1 284 163 478t406 193q194 -1 306 -117t112 -321q0 -76 -15 -170h-792
q-6 -33 -6 -73q0 -139 73 -219q74 -79 203 -78q223 0 299 223h178q-14 -61 -47 -119q-133 -250 -442 -250z" />
    <glyph glyph-name="afii10099" unicode="&#x452;" 
d="M973 494q0 -52 -55 -314q-56 -262 -236 -420t-449 -166l35 162q182 20 313 136q130 116 164 303q1 16 21 111t20 159q0 63 -45 101t-129 38q-154 0 -255 -108t-134 -267l-49 -229h-174l195 911h-154l31 146h153l84 401h174l-84 -401h463l-31 -146h-462l-72 -336
q147 180 367 181q139 0 224 -72t85 -190z" />
    <glyph glyph-name="afii10100" unicode="&#x453;" horiz-adv-x="860" 
d="M868 1505l-280 -297h-142l191 297h231zM911 911h-555l-194 -911h-174l225 1057h729z" />
    <glyph glyph-name="afii10101" unicode="&#x454;" horiz-adv-x="1099" 
d="M217 416q0 -143 70 -222t185 -79t196 61q80 61 116 170h181q-53 -180 -181 -278t-322 -98q-192 0 -306 116q-114 117 -115 326q0 274 163 476t431 202q177 0 283 -92t108 -248h-174q-6 92 -66 143t-178 51q-116 0 -218 -89t-144 -237h450l-30 -139h-447q-2 -20 -2 -63z
" />
    <glyph glyph-name="afii10102" unicode="&#x455;" horiz-adv-x="985" 
d="M899 748h-172q-2 193 -233 192q-98 0 -156 -39t-59 -108q0 -69 95 -116q32 -17 146 -61t156 -67q43 -22 85 -55q77 -60 78 -203q1 -142 -118 -233t-319 -91t-310 92q-111 92 -110 265v10h170v-4q0 -106 70 -164q71 -57 191 -57q121 0 187 47t66 125q0 47 -35 85t-66 52
t-63 28t-74 28q-41 14 -52 20t-48 21t-50 25q-14 10 -44 27q-30 19 -42 33t-31 37q-50 61 -50 154q0 139 104 218t287 78q397 0 397 -325v-14z" />
    <glyph glyph-name="afii10103" unicode="&#x456;" horiz-adv-x="454" 
d="M475 1458l-45 -213h-176l45 213h176zM391 1055l-223 -1055h-176l223 1055h176z" />
    <glyph glyph-name="afii10104" unicode="&#x457;" horiz-adv-x="454" 
d="M623 1448l-41 -205h-183l43 205h181zM291 1448l-41 -205h-182l43 205h180zM391 1057l-223 -1057h-176l223 1057h176z" />
    <glyph glyph-name="afii10105" unicode="&#x458;" horiz-adv-x="454" 
d="M469 1458l-43 -213h-176l45 213h174zM-147 -426q-53 0 -105 12l33 146q100 -30 139 16q25 29 74 268l217 1039h174l-252 -1198q-31 -143 -87 -213t-193 -70z" />
    <glyph glyph-name="afii10106" unicode="&#x459;" horiz-adv-x="1593" 
d="M1329 350q0 100 -74 129q-53 23 -174 23h-163l-76 -357h235q252 0 252 205zM1507 360q0 -154 -101 -257t-286 -103h-479l190 911h-315l-117 -475q-59 -242 -153 -348t-228 -106q-72 0 -124 24l30 133q25 -12 86 -12q141 0 226 342l143 588h657l-86 -412h211
q346 0 346 -285z" />
    <glyph glyph-name="afii10107" unicode="&#x45a;" horiz-adv-x="1593" 
d="M1309 350q0 100 -74 129q-55 23 -174 23h-180l-76 -357h252q252 0 252 205zM1139 645q346 0 346 -285q-1 -154 -101 -257t-284 -103h-498l103 502h-441l-104 -502h-174l225 1057h174l-88 -410h440l88 410h174l-86 -412h226z" />
    <glyph glyph-name="afii10108" unicode="&#x45b;" 
d="M973 494q0 -41 -17 -123l-75 -371h-174l57 293q22 117 22 177t-45 96q-45 38 -129 38q-154 0 -255 -108t-134 -267l-49 -229h-174l195 911h-154l31 146h153l84 401h174l-84 -401h463l-31 -146h-462l-72 -336q147 180 367 181q139 0 224 -72t85 -190z" />
    <glyph glyph-name="afii10109" unicode="&#x45c;" horiz-adv-x="1024" 
d="M930 1505l-281 -297h-141l190 297h232zM389 1057l-104 -488l565 488h242l-510 -424l342 -633h-201l-268 526l-217 -180l-74 -346h-174l225 1057h174z" />
    <glyph glyph-name="afii10110" unicode="&#x45e;" horiz-adv-x="985" 
d="M583 1298q79 0 145 43t93 117h105q-33 -125 -126 -204q-93 -78 -221 -78t-205 80t-67 202h105q4 -76 48 -118t123 -42zM-6 -428q-53 0 -125 20l35 148q109 -32 161 -11t121 135q25 40 29 46l57 90l-186 1057h186l127 -834l445 834h190l-610 -1086q-98 -172 -145 -237
q-117 -162 -285 -162z" />
    <glyph glyph-name="afii10193" unicode="&#x45f;" 
d="M510 0l-72 -336h-174l72 336h-350l223 1057h174l-193 -912h529l192 912h174l-223 -1057h-352z" />
    <glyph glyph-name="afii10050" unicode="&#x490;" horiz-adv-x="1120" 
d="M1354 1788l-107 -498h-766l-274 -1290h-193l310 1458h763l72 330h195z" />
    <glyph glyph-name="afii10098" unicode="&#x491;" horiz-adv-x="860" 
d="M995 1376l-98 -465h-543l-194 -911h-174l225 1057h543l67 319h174z" />
    <glyph glyph-name="endash" unicode="&#x2013;" horiz-adv-x="1024" 
d="M1024 653l-35 -168h-1024l35 168h1024z" />
    <glyph glyph-name="emdash" unicode="&#x2014;" horiz-adv-x="2048" 
d="M2050 653l-35 -168h-2050l35 168h2050z" />
    <glyph glyph-name="quoteleft" unicode="&#x2018;" horiz-adv-x="569" 
d="M223 969l39 192q31 152 98 241q68 89 205 89l-22 -100q-85 -8 -113 -65q-28 -56 -45 -136h117l-47 -221h-232z" />
    <glyph glyph-name="quoteright" unicode="&#x2019;" horiz-adv-x="569" 
d="M563 1458l-39 -192q-30 -152 -98 -241t-205 -89l23 100q84 8 112 65q28 56 45 136h-116l47 221h231z" />
    <glyph glyph-name="quotesinglbase" unicode="&#x201a;" horiz-adv-x="569" 
d="M305 221l-39 -192q-30 -152 -98 -241t-205 -89l23 100q84 8 112 65q28 56 45 136h-116l47 221h231z" />
    <glyph glyph-name="quotedblleft" unicode="&#x201c;" horiz-adv-x="872" 
d="M889 1485l-19 -94q-76 -9 -106 -57t-47 -144h110l-45 -211h-221l47 209q33 139 92 214q60 75 189 83zM516 1485l-18 -94q-76 -9 -106 -57t-48 -144h111l-45 -211h-222l48 209q33 139 92 214t188 83z" />
    <glyph glyph-name="quotedblright" unicode="&#x201d;" horiz-adv-x="872" 
d="M565 952l19 95q76 8 106 56t47 144h-110l45 211h221l-47 -209q-32 -139 -92 -214t-189 -83zM193 952l18 95q75 8 105 56t49 144h-111l45 211h221l-47 -209q-33 -139 -92 -214t-188 -83z" />
    <glyph glyph-name="quotedblbase" unicode="&#x201e;" horiz-adv-x="872" 
d="M635 211l-37 -178q-33 -150 -95 -239t-196 -95l21 100q70 12 98 51t47 115l8 35h-112l45 211h221zM260 211l-37 -178q-33 -150 -95 -239t-196 -95l21 100q71 12 99 51t46 115l8 35h-112l45 211h221z" />
    <glyph glyph-name="dagger" unicode="&#x2020;" 
d="M809 1458l-90 -426h399l-31 -147h-401l-254 -1204h-168l252 1204h-395l31 147h397l90 426h170z" />
    <glyph glyph-name="daggerdbl" unicode="&#x2021;" 
d="M811 1458l-88 -414h403l-30 -145h-404l-137 -663h399l-30 -146h-404l-86 -407h-166l86 407h-395l31 146h395l141 663h-397l33 145h393l90 414h166z" />
    <glyph glyph-name="bullet" unicode="&#x2022;" horiz-adv-x="1024" 
d="M512 1094q152 0 258 -106t106 -259q0 -152 -106 -258t-258 -106t-258 106t-107 258q1 153 107 259t258 106z" />
    <glyph glyph-name="ellipsis" unicode="&#x2026;" horiz-adv-x="2048" 
d="M1720 227l-49 -227h-227l49 227h227zM1038 227l-49 -227h-227l49 227h227zM356 227l-49 -227h-227l49 227h227z" />
    <glyph glyph-name="perthousand" unicode="&#x2030;" horiz-adv-x="2199" 
d="M1720 90q64 0 111 60q79 101 82 266q0 143 -123 143q-70 0 -117 -59q-78 -97 -80 -264q-1 -146 127 -146zM1802 676q125 0 194 -68t68 -190q0 -193 -98 -317t-238 -124t-208 71q-70 71 -70 198q0 174 92 302t260 128zM998 90q64 0 110 60q79 101 82 266q0 143 -123 143
q-70 0 -117 -59q-78 -97 -80 -264q0 -146 128 -146zM1079 676q125 0 194 -68t68 -190q0 -193 -98 -317q-97 -124 -237 -124t-210 71t-69 198q0 174 92 302t260 128zM404 868q64 0 110 60q82 104 82 256q0 153 -123 153q-70 0 -117 -59q-78 -97 -80 -264q0 -146 128 -146z
M485 1454q125 0 194 -68t69 -190q0 -192 -98 -316t-238 -124t-210 70t-69 198q0 174 92 302t260 128zM1415 1495l-1218 -1567h-144l1217 1567h145z" />
    <glyph glyph-name="guilsinglleft" unicode="&#x2039;" horiz-adv-x="530" 
d="M438 868l-37 -180l-245 -139l174 -191l-35 -163l-252 280l43 187z" />
    <glyph glyph-name="guilsinglright" unicode="&#x203a;" horiz-adv-x="530" 
d="M170 870l252 -282l-45 -185l-352 -206l38 182l244 137l-174 191z" />
    <glyph glyph-name="afii61352" unicode="&#x2116;" horiz-adv-x="2048" 
d="M1782 0h-574l27 129h573zM1057 0h-213l-408 1137h-4l-242 -1137h-184l303 1425h207l412 -1149h4l244 1149h184zM1300 536q0 128 96 226q96 100 233 100q138 0 210 -68t72 -204q0 -134 -93 -227q-92 -93 -234 -93t-213 69t-71 197zM1761 612q0 137 -125 138
q-92 0 -139 -68t-47 -162q0 -137 131 -137q92 1 136 67t44 162z" />
    <glyph glyph-name="trademark" unicode="&#x2122;" horiz-adv-x="2027" 
d="M1040 729v729h150l219 -581l219 581h146v-729h-91v633l-235 -633h-82l-236 633v-633h-90zM559 729v643h-250v86h600v-86h-250v-643h-100z" />
    <glyph glyph-name="Delta" unicode="&#x2206;" horiz-adv-x="1372" 
d="M98 127h928l-211 1182zM915 1430l277 -1430h-1313l887 1430h149z" />
    <glyph glyph-name="radical" unicode="&#x221a;" horiz-adv-x="1228" 
d="M1118 1610l-430 -2048h-135l-336 696l-94 -45l-49 102l205 99l325 -680l385 1876h129z" />
    <glyph glyph-name="infinity" unicode="&#x221e;" horiz-adv-x="1517" 
d="M139 509q0 -81 47 -129t125 -48q132 0 310 178q-15 10 -67 53t-83 66q-93 69 -165 68q-73 -1 -120 -54t-47 -134zM1255 513q0 83 -46 134t-131 51t-184 -85q-28 -24 -50 -41t-68 -64q26 -26 72 -63t55 -43q10 -6 33 -22q23 -14 38 -20t43 -17t89 -11q60 0 104 49t45 132z
M698 432q-219 -219 -389 -219q-127 0 -207 83t-80 215t80 218t203 86q72 0 151 -41q78 -42 126 -82t116 -108q61 61 85 84q104 100 174 124q69 25 124 25q127 0 209 -85t82 -218t-80 -217t-207 -84q-90 0 -175 48t-212 171z" />
    <glyph glyph-name="approxequal" unicode="&#x2248;" horiz-adv-x="1228" 
d="M429 332q-88 30 -145 32q-56 0 -100 -46t-55 -117h-92q10 121 75 203t181 81q82 0 276 -68q43 -15 89 -31t96 -32q50 -18 112 -18t104 46t52 114h88q-14 -135 -81 -208t-161 -73q-94 -1 -439 117zM429 680q-95 32 -148 33q-53 0 -97 -46t-55 -118h-92q10 121 75 203
t181 82q79 0 276 -69q43 -15 141 -48t158 -33t102 46t52 114h88q-14 -135 -81 -208t-161 -73q-94 -1 -439 117z" />
    <glyph glyph-name="notequal" unicode="&#x2260;" horiz-adv-x="1228" 
d="M61 664v122h578l158 301l106 -57l-131 -244h318v-122h-381l-142 -269h523v-121h-588l-156 -294l-106 57l127 237h-306v121h371l139 269h-510z" />
    <glyph glyph-name="lessequal" unicode="&#x2264;" horiz-adv-x="1228" 
d="M59 66h1028v-121h-1028v121zM59 539v133l1028 387v-133l-858 -322l858 -317v-133z" />
    <glyph glyph-name="greaterequal" unicode="&#x2265;" horiz-adv-x="1228" 
d="M1128 66v-121h-1028v121h1028zM1128 539l-1028 -385v133l861 317l-861 322v133l1028 -387v-133z" />
    <glyph glyph-name="hyphenminus" unicode="&#xe000;" horiz-adv-x="796" 
d="M680 653l-35 -168h-594l35 168h594z" />
    <glyph glyph-name="nbspace" unicode="&#xe001;" horiz-adv-x="569" 
 />
    </font>
</defs>
</svg>
